# xmcd
#
# Track frame offsets:
#	150
#	12545
#	25347
#	37320
#	49675
#	60705
#	73385
#	84132
#	97897
#	108375
#	116692
#	129327
#	142212
#	154534
#	166275
#	178190
#	189727
#	202870
#	214710
#	226390
#	238322
#	246927
#	259105
#	271360
#	284352
#	296025
#	305895
#	317860
#
# Disc length: 4394 seconds
# Revision: 0
# Processed by: cddbd v1.5.2PL0 Copyright (c) Steve Scherf et al.
# Submitted via: dBpowerAMP V12.0
#
DISCID=b011281c
DTITLE=Grandpa Jones - 28 Greatest Hits
DYEAR=1998
DGENRE=Country
TTITLE0=Mountain Dew
TTITLE1=15 Cents Is All I Got
TTITLE2=You'll Make Our Shack A Mansion
TTITLE3=Eight More Miles To Louisville
TTITLE4=Bald Headed End Of The Broom
TTITLE5=Old Rattler
TTITLE6=Down In Dixie (Where They Say You All)
TTITLE7=East Bound Freight Train
TTITLE8=Time, Time, Time, Time
TTITLE9=Take It On Out The Door
TTITLE10=Get Back On The Glory Road
TTITLE11=I'm Tying The Leaves So They Won't Come Down
TTITLE12=You Done Me Mean And Hateful
TTITLE13=I Don't Know Gee From Haw
TTITLE14=I'm My Own Grandpa
TTITLE15=Chicken Don't Roost Too High
TTITLE16=Tragic Romance
TTITLE17=Daisy Dean
TTITLE18=Are You From Dixie
TTITLE19=Five-String Banjo Boogie
TTITLE20=How Many Biscuits Can You Eat
TTITLE21=Old Rattler's Treed Again
TTITLE22=Grandpa's Getting Married Again
TTITLE23=It's Raining Here This Morning
TTITLE24=Our Fathers Had Religion
TTITLE25=Don't Sweet Talk Me
TTITLE26=Uncle Eph's Got The Coon
TTITLE27=My Little Nagging Wife
EXTD=
EXTT0=
EXTT1=
EXTT2=
EXTT3=
EXTT4=
EXTT5=
EXTT6=
EXTT7=
EXTT8=
EXTT9=
EXTT10=
EXTT11=
EXTT12=
EXTT13=
EXTT14=
EXTT15=
EXTT16=
EXTT17=
EXTT18=
EXTT19=
EXTT20=
EXTT21=
EXTT22=
EXTT23=
EXTT24=
EXTT25=
EXTT26=
EXTT27=
PLAYORDER=
